# xmcd
#
# Track frame offsets: 
#        150
#        12432
#        26260
#        39364
#        51812
#        66035
#        78473
#        91187
#        103890
#        116203
#        131017
#        145768
#        157994
#        172907
#        185360
#        195991
#        208976
#        221997
#        234821
#        245829
#        259718
#        271453
#        282325
#        292867
#        305294
#
# Disc length: 4248 seconds
#
# Revision: 0
# Processed by: cddbd v1.5.2PL0 Copyright (c) Steve Scherf et al.
# Submitted via: ExactAudioCopy v0.99pb5
#
DISCID=64109619
DTITLE=Elmore James - Elmore James - The Blues
DYEAR=2013
DGENRE=Blues
TTITLE0=Dust My Broom
TTITLE1=It Hurts Me Too
TTITLE2=The Way You Treat Me
TTITLE3=Standing At The Crossroads
TTITLE4=Please Find My Baby
TTITLE5=Cry For Me Baby
TTITLE6=Round House Boogie
TTITLE7=Early In The Morning
TTITLE8=Blues Before Sunrise
TTITLE9=Sunny Land
TTITLE10=I Believe
TTITLE11=Make My Dreams Come True
TTITLE12=Wild About You
TTITLE13=Late Hours At Midnight
TTITLE14=Take Me Where You Go
TTITLE15=Sho' Nuff I Do
TTITLE16=Long Tall Woman
TTITLE17=I Was A Fool
TTITLE18=Coming Home
TTITLE19=The Twelve Year Old Boy
TTITLE20=Rock My Baby Right
TTITLE21=No Love In My Heart
TTITLE22=Hawaiian Boogie
TTITLE23=Happy Home
TTITLE24=Goodbye Baby
EXTD=
EXTT0=
EXTT1=
EXTT2=
EXTT3=
EXTT4=
EXTT5=
EXTT6=
EXTT7=
EXTT8=
EXTT9=
EXTT10=
EXTT11=
EXTT12=
EXTT13=
EXTT14=
EXTT15=
EXTT16=
EXTT17=
EXTT18=
EXTT19=
EXTT20=
EXTT21=
EXTT22=
EXTT23=
EXTT24=
PLAYORDER=
